<?xml version="1.0" encoding="UTF-8" standalone="no"?>
<!DOCTYPE svg PUBLIC "-//W3C//DTD SVG 1.1//EN" "http://www.w3.org/Graphics/SVG/1.1/DTD/svg11.dtd">
<svg version="1.1" xmlns="http://www.w3.org/2000/svg" xmlns:xlink="http://www.w3.org/1999/xlink" preserveAspectRatio="xMidYMid meet" viewBox="0 0 1200 800" width="499.5" height="333"><defs><path d="M511.66 112.43L567.44 112.43L623.92 112.43C651.54 198.2 668.8 251.81 675.71 273.26C678.31 281.35 679.64 289.79 679.64 298.29C679.64 378.98 679.65 606.85 679.65 687.2C679.65 695.23 673.14 701.74 665.1 701.74C623.13 701.74 512.01 701.74 470.09 701.74C461.89 701.74 455.23 695.09 455.23 686.88C455.23 607.18 455.22 381.67 455.22 301.66C455.22 292.85 456.59 284.09 459.28 275.7C466.27 253.93 483.73 199.51 511.66 112.43Z" id="a1xhyJNFiL"></path><path d="M594.45 80.76C601.85 80.76 607.85 86.76 607.85 94.16C607.85 96.6 607.85 102.69 607.85 112.43L527.02 112.43C527.02 102.69 527.02 96.6 527.02 94.16C527.02 86.76 533.02 80.76 540.42 80.76C553.9 80.76 580.96 80.76 594.45 80.76Z" id="fAilKKKrh"></path><path d="M513.78 153.89L567.44 153.89L621.7 153.89C642.54 227.48 655.56 273.47 660.77 291.87C662.76 298.89 663.77 306.17 663.77 313.47C663.77 382.75 663.78 578.41 663.78 647.39C663.78 654.29 658.19 659.88 651.29 659.88C615.25 659.88 519.84 659.88 483.85 659.88C476.8 659.88 471.09 654.17 471.09 647.12C471.09 578.69 471.08 385.07 471.08 316.36C471.08 308.79 472.13 301.25 474.19 293.96C479.47 275.28 492.66 228.59 513.78 153.89Z" id="b2tcr9vSH8"></path></defs><g><g><g><use xlink:href="#a1xhyJNFiL" opacity="1" fill="#ececec" fill-opacity="1"></use></g><g><use xlink:href="#fAilKKKrh" opacity="1" fill="#414141" fill-opacity="1"></use></g><g><use xlink:href="#b2tcr9vSH8" opacity="1" fill="#93e2ff" fill-opacity="1"></use></g></g></g></svg>