<?xml version="1.0" encoding="UTF-8" standalone="no"?>
<!DOCTYPE svg PUBLIC "-//W3C//DTD SVG 1.1//EN" "http://www.w3.org/Graphics/SVG/1.1/DTD/svg11.dtd">
<svg version="1.1" xmlns="http://www.w3.org/2000/svg" xmlns:xlink="http://www.w3.org/1999/xlink" preserveAspectRatio="xMidYMid meet" viewBox="0 0 1200 800" width="500" height="333.33"><defs><path d="M706.94 210.47C713.82 210.47 719.2 216.39 718.54 223.23C710.76 303.93 688.79 531.91 681.05 612.27C680.26 620.48 673.36 626.74 665.11 626.74C623.13 626.74 512.01 626.74 470.09 626.74C461.67 626.74 454.62 620.34 453.81 611.95C446.07 531.65 424.16 304.31 416.39 223.7C415.71 216.61 421.29 210.47 428.41 210.47C486.69 210.47 648.58 210.47 706.94 210.47Z" id="aUn1V6IrI"></path><path d="M445.75 252.33L689.13 252.33C672.67 423.15 662.38 529.92 658.27 572.63C657.6 579.58 651.75 584.88 644.77 584.88C611.38 584.88 524.89 584.88 491.84 584.88C483.87 584.88 477.22 578.84 476.45 570.91C472.36 528.43 462.13 422.24 445.75 252.33Z" id="c1ruFkaSDS"></path></defs><g><g><g><use xlink:href="#aUn1V6IrI" opacity="1" fill="#ececec" fill-opacity="1"></use></g><g><use xlink:href="#c1ruFkaSDS" opacity="1" fill="#93e2ff" fill-opacity="1"></use></g></g></g></svg>